<svg
    fill="none"
    height="60"
    viewBox="0 0 84 60"
    width="84"
    xmlns="http://www.w3.org/2000/svg"
    xmlns:xlink="http://www.w3.org/1999/xlink"
><clipPath id="a"><path d="m0 0h83.4638v59.1885h-83.4638z" /></clipPath><g
        clip-path="url(#a)"
        id="f"
    ><path
            d="m69.759 59.1885c-7.1916 0-12.0764-5.7533-12.0764-14.6003 0-8.8471 4.8577-14.6004 11.9679-14.6004 4.0436 0 7.3001 1.9811 8.9827 5.0749h.1086v-13.4877c0-1.4926.9769-2.5239 2.361-2.5239 1.384 0 2.361 1.0313 2.361 2.5239v35.3067c0 1.3569-.9498 2.3068-2.3067 2.3068-1.3298 0-2.4153-.9227-2.4153-2.3068v-3.2294h-.0814c-1.5469 3.3651-4.4778 5.5362-8.9014 5.5362zm.8956-4.1522c4.8577 0 8.1143-4.125 8.1143-10.4481 0-6.2961-3.2566-10.4482-8.1143-10.4482-4.9934 0-8.1415 4.0707-8.1415 10.4482 0 6.4046 3.1481 10.4481 8.1415 10.4481z"
        /><path
            d="m51.3815 41.35h-2.5381c0-.1238 0-.1857 0-.3095 0-3.4667-2.1048-6.5001-5.2001-7.7382-1.1762-3.2191-4.3334-5.4477-7.862-5.4477-.9905 0-1.919.1857-2.8476.4953-1.5477-1.5477-3.6524-2.4144-5.881-2.4144-1.8572 0-3.6525.6191-5.0763 1.7334-.9286-.3714-1.981-.5572-3.0333-.5572-3.7763 0-6.9954 2.4763-8.0478 6.0049-3.28094 1.1762-5.57144 4.2714-5.57144 7.862v.3095h-2.53812c-1.54763 0-2.78574 1.2381-2.78574 2.7857 0 1.5477 1.23811 2.7858 2.78574 2.7858h1.48573l2.16669 7.8001c.68096 2.4143 2.90955 4.0857 5.38574 4.0857h30.3337c2.5381 0 4.7048-1.6714 5.3858-4.0857l2.1666-7.8001h1.4858c1.5476 0 2.7857-1.2381 2.7857-2.7858.1857-1.4857-1.0524-2.7238-2.6-2.7238zm-41.78616-.3714c0-2.0429 1.48576-3.7763 3.52856-4.0858.9286-.1238 1.6715-.9286 1.7953-1.8572.2476-2.1047 1.981-3.7143 4.1477-3.7143.8047 0 1.5476.2476 2.2286.681.8666.5571 2.0428.3714 2.7238-.3715.8048-.9285 1.9191-1.4238 3.1572-1.4238 1.4238 0 2.7238.7429 3.5286 1.9191.3095.4952.8047.8048 1.3619.9286.5571.1238 1.1143 0 1.6095-.3096.681-.4333 1.4858-.6809 2.2905-.6809 1.981 0 3.6525 1.3619 4.0858 3.281.1857.8047.8048 1.4238 1.5476 1.6095 1.8572.4333 3.1572 2.1048 3.1572 4.0239v.3095h-35.16226c0-.0619 0-.1857 0-.3095z"
        /><path
            d="m11.762 17.2687.9286 2.2286c.3095.8048 1.1143 1.3 1.9191 1.3.2476 0 .5571-.0619.8047-.1857 1.0524-.4333 1.6096-1.6714 1.1143-2.7238l-.9285-2.2286c-.5572-1.3-.3096-2.8477.619-3.9001 1.9191-2.29046 2.3524-5.44764 1.2381-8.23338l-.8666-2.2286c-.4334-1.052388-1.6715-1.609537-2.7239-1.114293-1.0524.433338-1.6095 1.671443-1.1143 2.723833l.9286 2.2286c.5571 1.30001.3095 2.84765-.6191 3.90004-1.9809 2.2905-2.4143 5.4477-1.3 8.2334z"
        /><path
            d="m24.2669 17.2687.9286 2.2286c.3095.8048 1.1143 1.3 1.9191 1.3.2476 0 .5571-.0619.8047-.1857 1.0524-.4333 1.6096-1.6714 1.1143-2.7238l-.9285-2.2286c-.5572-1.3-.3096-2.8477.619-3.9001 1.9191-2.29046 2.3524-5.44764 1.2381-8.23338l-.9286-2.2286c-.4333-1.052388-1.6714-1.609537-2.7238-1.114293-1.0524.433338-1.6095 1.671443-1.1143 2.723833l.9286 2.2286c.5571 1.30001.3095 2.84765-.6191 3.90004-1.919 2.2905-2.4143 5.4477-1.2381 8.2334z"
        /><path
            d="m36.7099 17.2687.9286 2.2286c.3095.8048 1.1143 1.3 1.919 1.3.2477 0 .5572-.0619.8048-.1857 1.0524-.4333 1.6095-1.6714 1.1143-2.7238l-.9286-2.2286c-.5571-1.3-.3095-2.8477.6191-3.9001 1.919-2.29046 2.3524-5.44764 1.2381-8.23338l-.9286-2.2286c-.4333-1.052388-1.6714-1.609537-2.7238-1.114293-1.0524.433338-1.6096 1.671443-1.1143 2.723833l.9285 2.2286c.5572 1.30001.3096 2.84765-.619 3.90004-1.8572 2.2905-2.3524 5.4477-1.2381 8.2334z"
        /></g>
<style>
#f {
    fill: black;
}
@media (prefers-color-scheme: dark) {
    #f {
        fill: white;
    }
}
</style></svg>
